<svg width="17" height="9" viewBox="0 0 17 9" fill="none" xmlns="http://www.w3.org/2000/svg">
<g clip-path="url(#clip0_2859_1973)">
<path d="M2.56161 4.50021C2.56116 4.74645 2.60936 4.99035 2.70344 5.21791C2.79753 5.44547 2.93565 5.65219 3.10986 5.82621L6.17436 8.89034C6.24508 8.95865 6.33981 8.99645 6.43813 8.99559C6.53646 8.99474 6.63051 8.9553 6.70004 8.88577C6.76957 8.81624 6.80901 8.72219 6.80986 8.62386C6.81072 8.52554 6.77292 8.43081 6.70461 8.36009L3.64011 5.29596C3.42943 5.08472 3.31112 4.79855 3.31112 4.50021C3.31112 4.20187 3.42943 3.91571 3.64011 3.70446L6.70461 0.640339C6.74043 0.605746 6.76899 0.564367 6.78865 0.518616C6.8083 0.472864 6.81864 0.423656 6.81908 0.373864C6.81951 0.324072 6.81002 0.274693 6.79117 0.228606C6.77231 0.18252 6.74447 0.140651 6.70926 0.105441C6.67405 0.0702314 6.63218 0.0423861 6.58609 0.023531C6.54001 0.00467491 6.49063 -0.00481319 6.44083 -0.00438023C6.39104 -0.00394726 6.34183 0.00639725 6.29608 0.0260506C6.25033 0.0457048 6.20895 0.0742722 6.17436 0.110088L3.10986 3.17421C2.93565 3.34824 2.79753 3.55496 2.70344 3.78252C2.60936 4.01007 2.56116 4.25397 2.56161 4.50021Z" fill="white"/>
</g>
<g clip-path="url(#clip1_2859_1973)">
<path d="M14.4384 4.50021C14.4388 4.74645 14.3906 4.99035 14.2966 5.21791C14.2025 5.44547 14.0644 5.65219 13.8901 5.82621L10.8256 8.89034C10.7549 8.95865 10.6602 8.99645 10.5619 8.99559C10.4635 8.99474 10.3695 8.9553 10.3 8.88577C10.2304 8.81624 10.191 8.72219 10.1901 8.62386C10.1893 8.52554 10.2271 8.43081 10.2954 8.36009L13.3599 5.29596C13.5706 5.08472 13.6889 4.79855 13.6889 4.50021C13.6889 4.20187 13.5706 3.91571 13.3599 3.70446L10.2954 0.640339C10.2596 0.605746 10.231 0.564367 10.2114 0.518616C10.1917 0.472864 10.1814 0.423656 10.1809 0.373864C10.1805 0.324072 10.19 0.274693 10.2088 0.228606C10.2277 0.18252 10.2555 0.140651 10.2907 0.105441C10.326 0.0702314 10.3678 0.0423861 10.4139 0.023531C10.46 0.00467491 10.5094 -0.00481319 10.5592 -0.00438023C10.609 -0.00394726 10.6582 0.00639725 10.7039 0.0260506C10.7497 0.0457048 10.791 0.0742722 10.8256 0.110088L13.8901 3.17421C14.0644 3.34824 14.2025 3.55496 14.2966 3.78252C14.3906 4.01007 14.4388 4.25397 14.4384 4.50021Z" fill="white"/>
</g>
<defs>
<clipPath id="clip0_2859_1973">
<rect width="9" height="9" fill="white" transform="matrix(0 -1 -1 0 9 9)"/>
</clipPath>
<clipPath id="clip1_2859_1973">
<rect width="9" height="9" fill="white" transform="matrix(0 -1 1 0 8 9)"/>
</clipPath>
</defs>
</svg>
