<svg width="271" height="82" viewBox="0 0 271 82" fill="none" xmlns="http://www.w3.org/2000/svg">
<path d="M218.513 18.6946C216.762 22.1928 214.174 27.534 212.765 30.6561C209.492 37.8405 208.503 39.8717 208.16 39.8717C207.703 39.8717 206.676 36.5239 205.191 29.9038C202.26 17.1148 199.824 13.579 195.409 15.6478C192.25 17.1148 191.07 18.9955 183.268 34.3423C179.233 42.3918 175.846 49.0873 175.769 49.2377C175.655 49.5762 167.053 50.2533 158.527 50.5918C152.171 50.8551 148.974 51.1561 147.718 51.6074C145.739 52.3221 145.244 50.479 146.576 47.3946L147.375 45.5891L150.649 44.7992C152.476 44.3854 154.988 43.8588 156.244 43.6331C157.5 43.4074 160.507 42.7304 162.904 42.1285C165.302 41.5267 168.119 40.9249 169.109 40.812C170.403 40.6239 171.316 40.2102 172.077 39.4579C172.686 38.8561 173.486 38.3671 173.866 38.3671C174.399 38.3671 174.399 38.2918 173.98 38.0285C173.562 37.7652 173.866 37.5772 175.122 37.2386C177.596 36.6368 177.711 36.5616 176.15 36.5239C174.285 36.4863 174.019 35.9221 175.579 35.3579C176.531 34.9817 176.645 34.8313 176.074 34.7184C175.693 34.6056 174.818 34.6056 174.095 34.6808C173.372 34.7561 172.763 34.6808 172.724 34.5304C172.648 34.3423 168.462 34.1542 163.361 34.1166C158.299 34.079 154.15 33.9661 154.15 33.8533C154.15 33.7405 154.493 33.1386 154.873 32.4616C156.396 30.0166 161.039 28.2111 165.759 28.2487C170.25 28.3239 179.499 26.1047 179.157 25.0515C179.081 24.8258 178.091 24.5625 176.949 24.4496L174.894 24.2616L177.749 23.3588C181.212 22.3056 181.859 21.8166 179.842 21.779H178.32L179.842 21.0643L181.364 20.3496H180.032C177.749 20.2744 177.482 19.7102 179.461 19.2212C180.451 18.9579 181.174 18.657 181.022 18.5441C180.908 18.4313 180.984 18.0928 181.174 17.8671C181.593 17.3781 179.119 17.1148 168.385 16.6258C163.399 16.3625 162.943 16.2873 161.458 15.3093C159.441 13.9928 158.604 14.0304 157.5 15.4221L156.586 16.5506L151.676 16.6634C147.261 16.7386 146.5 16.8515 144.559 17.7542L142.389 18.7322L140.067 17.7918C138.773 17.3028 136.604 16.6258 135.196 16.3249C131.77 15.535 119.095 15.1964 115.746 15.7606C114.376 15.9863 111.064 16.212 108.4 16.2873C104.251 16.4001 103.338 16.5506 101.739 17.3405C99.9883 18.2056 99.76 18.2056 97.6285 17.7542C94.5074 17.1148 81.1478 16.9643 75.743 17.5285C73.3451 17.7918 70.3763 17.9047 69.1583 17.7918C67.5216 17.6414 66.7985 17.7166 66.3037 18.1304C65.9611 18.4689 65.0476 18.8827 64.3244 19.1084C62.231 19.7478 57.2069 20.4249 56.5598 20.1992C55.8367 19.8983 55.7605 18.3184 56.4076 15.9863C56.9785 13.9175 56.5218 13.4285 54.4284 13.8047C51.6499 14.2561 49.3281 15.7983 43.733 20.8762C37.3006 26.7065 28.0896 34.7937 26.9097 35.5836C26.1104 36.1478 24.4357 36.6744 22.0758 37.0506C20.0966 37.3891 17.7368 37.9909 16.8614 38.3671C15.0344 39.157 13.6261 41.0753 13.7784 42.5047C13.8926 43.4074 14.0448 43.445 16.4808 43.5579C17.889 43.6331 19.0309 43.7836 19.0309 43.8964C19.0309 44.0469 18.498 44.6863 17.851 45.3634C16.4427 46.7928 15.8718 48.9368 16.4046 50.8551C16.8233 52.435 17.6607 53.0368 19.4115 53.0368C21.0862 53.0368 22.4565 51.946 24.5499 49.0496C26.9097 45.7772 29.9166 43.6331 33.9511 42.3542C37.0341 41.3762 44.8749 40.0973 45.2935 40.4735C45.4077 40.5863 45.56 44.6863 45.6361 49.5762C45.7503 57.9643 46.169 65.9386 46.3973 64.6973C46.4735 64.3588 46.6257 64.5093 46.816 65.0735C47.0824 65.9762 47.0824 65.9386 47.3869 64.6221C47.5392 63.8322 47.8056 63.3056 47.9959 63.4184C48.1862 63.5313 48.3385 63.3432 48.3385 63.0047C48.3385 62.5909 48.5288 62.4405 48.9094 62.5909C49.3281 62.7414 49.4803 62.5157 49.5565 61.7634C49.5565 61.1992 49.7087 61.5753 49.8229 62.6285L50.0893 64.5093L50.8506 62.0643C51.3073 60.7102 51.8782 58.4533 52.1447 56.9863C52.5253 55.0304 52.7156 54.579 52.944 55.1056C53.0962 55.5194 53.2485 55.6322 53.2485 55.3689C53.2865 55.1432 53.6291 54.9175 54.0478 54.9175C54.5045 54.9175 55.2657 54.6542 55.7605 54.3157C56.2934 53.9772 56.9404 53.7891 57.283 53.9019C57.5875 54.0524 57.9301 53.9772 58.0442 53.7891C58.1965 53.5634 58.6913 53.5258 59.2242 53.6386C60.2899 53.9019 69.4247 49.6515 74.2586 46.6047C75.8191 45.5891 78.2551 44.2726 79.6633 43.6331C81.8709 42.6551 83.6598 41.6395 86.9712 39.6084C87.3899 39.345 89.5213 38.2166 91.7289 37.0882C93.9365 35.9597 96.6389 34.4928 97.7427 33.8533L99.76 32.6872L97.7046 36.7496C95.0403 41.9405 91.3483 51.1184 91.3483 52.3973C91.3483 53.4882 91.767 53.601 94.4313 53.1873C95.5351 52.9992 95.9538 52.6983 96.4486 51.6827C96.7912 50.968 97.4382 50.2533 97.8949 50.0652C98.3897 49.8772 99.0749 49.3882 99.4935 48.9368C99.8742 48.523 100.331 48.2597 100.521 48.3726C101.13 48.7487 103.109 47.3946 104.518 45.6267C106.459 43.2194 108.172 41.3762 108.514 41.3762C108.666 41.3762 111.788 43.7836 115.403 46.7175C131.275 59.5817 133.939 61.6882 134.206 61.6882C134.358 61.6882 134.206 61.3873 133.901 61.0111C132.721 59.657 132.721 59.3184 133.939 60.146C135.234 61.0487 135.957 60.9735 135.119 59.9955C134.548 59.3184 134.853 59.2808 135.957 59.845C136.528 60.146 136.68 60.146 136.452 59.845C136.261 59.5441 137.175 59.4689 139.763 59.6194C148.707 60.0707 151.41 60.146 152.818 59.845C153.655 59.657 155.673 59.2432 157.309 58.9047C158.946 58.5662 162.448 57.4377 165.112 56.4597C167.776 55.4441 170.669 54.3909 171.583 54.1276C172.458 53.9019 173.181 53.5258 173.181 53.3377C173.181 53.1873 173.448 53.0368 173.752 53.0368C174.437 53.0368 174.475 52.8487 173.562 55.2184C172.42 58.19 172.534 60.3717 173.904 61.7258L175.046 62.8166L176.378 62.1772C177.52 61.6129 178.091 60.823 179.728 57.7386C180.794 55.6698 183.001 52.0964 184.6 49.8395C188.101 44.9496 192.022 38.668 193.697 35.3955C194.382 34.1166 195.067 33.1762 195.219 33.2891C195.562 33.4772 196.209 35.5084 198.074 42.1285C199.063 45.5891 201.613 52.435 202.755 54.7295C203.631 56.4221 204.811 57.5506 205.762 57.5506C206.333 57.5506 207.208 56.7606 208.693 54.8047C209.873 53.3377 211.167 51.8331 211.547 51.4946C212.271 50.8928 212.347 50.9304 213.108 51.946C213.793 52.8487 214.212 53.0368 215.506 53.0368C217.181 53.0368 217.257 52.9616 222.357 47.2817C225.783 43.4827 229.475 41.9028 237.506 40.7744C240.284 40.3983 241.16 40.3983 241.388 40.7368C241.73 41.2634 241.845 44.1973 241.692 49.5386C241.578 54.8047 242.111 65.2616 242.454 64.6597C242.682 64.3588 242.834 64.4717 242.948 65.1111C243.101 65.9386 243.139 65.901 243.405 64.7726C243.557 64.1331 243.824 63.5689 243.976 63.5689C244.166 63.5689 244.471 63.1175 244.661 62.5157C245.004 61.6882 245.08 61.6506 245.118 62.2524C245.194 62.8918 245.232 62.8542 245.499 62.0643C245.765 61.2744 245.803 61.3873 245.841 62.7414C245.879 64.923 246.412 64.4717 247.173 61.6129C250.028 50.4414 250.18 49.5386 250.218 44.7239C250.294 38.5551 250.599 37.9909 253.986 37.9909C255.281 37.9909 256.727 37.8781 257.184 37.7652C258.592 37.3891 257.755 36.8625 255.813 36.8625C254.748 36.8625 253.796 36.6368 253.53 36.3735C252.921 35.6212 253.415 35.3579 255.509 35.3579C258.097 35.3579 257.488 34.9065 254.824 34.8313C253.454 34.7937 252.54 34.568 252.121 34.1542C251.17 33.2139 251.018 29.9038 251.741 25.9918C252.083 24.1487 252.35 21.3652 252.312 19.8606C252.274 18.3561 252.35 16.4001 252.54 15.535C252.921 13.5038 252.388 13.2405 249.609 14.068C247.173 14.745 245.156 16.1368 240.703 20.1616C238.838 21.8166 236.554 23.8478 235.603 24.6753C234.651 25.4652 232.101 27.7221 229.893 29.7157C223.918 35.0946 222.243 36.3735 220.72 36.6368L219.388 36.8625L220.302 32.6496C220.797 30.3175 221.672 26.4808 222.243 24.1863C222.814 21.8542 223.118 19.8983 223.004 19.8606C222.852 19.7854 222.966 18.7322 223.271 17.4909C223.537 16.2496 223.803 14.8955 223.803 14.4817C223.765 13.8047 223.727 13.8047 223.309 14.3313C223.042 14.6698 222.547 14.9331 222.205 14.9331C221.824 14.9331 221.52 14.8955 221.52 14.8955C221.52 14.8579 221.672 14.2937 221.862 13.6166C222.623 11.0588 221.558 12.6386 218.513 18.6946ZM94.3933 24.0359C94.3933 24.5249 82.1374 32.6872 81.3761 32.7249C81.0716 32.7249 71.9749 38.6304 70.3001 39.9469C68.2067 41.5267 62.802 44.7239 62.802 44.3854C62.802 43.934 64.5147 39.4579 65.0476 38.5175C65.276 38.1414 66.1514 36.1102 66.9888 34.0414C67.8642 31.9726 69.1202 29.0762 69.8434 27.5717C71.2897 24.6001 70.9091 24.7882 75.9333 24.1111C79.0163 23.6597 94.3933 23.6221 94.3933 24.0359ZM132.455 23.8854C132.455 24.4496 116.241 28.4744 115.746 28.023C115.67 27.9102 115.86 27.2331 116.203 26.4808C117.345 24.1863 119.019 23.6973 126.289 23.6973C129.677 23.6973 132.455 23.7726 132.455 23.8854ZM146.081 25.8038C147.832 27.0074 147.299 28.2111 141.59 36.1102C140.791 37.2386 139.991 38.5928 139.877 39.1194C139.725 39.646 138.545 42.3542 137.213 45.1377C135.919 47.9212 134.587 50.8551 134.32 51.645C134.054 52.3973 133.711 52.9992 133.559 52.9616C133.369 52.8863 131.656 51.1184 129.715 49.012C127.773 46.9432 124.386 43.6331 122.178 41.7148C115.518 35.9221 115.251 35.6964 115.403 35.5836C115.441 35.546 117.497 35.1322 119.895 34.6432C126.708 33.3267 138.545 30.1295 140.6 29.0386C141.628 28.4744 142.998 27.3836 143.645 26.6313C145.015 25.0139 144.977 25.0139 146.081 25.8038ZM62.0407 25.7662C62.0407 25.879 61.7362 26.5937 61.3556 27.3836C60.9369 28.1359 60.1376 30.1671 59.5287 31.8597C58.3107 35.3203 57.7778 35.6588 56.1412 34.0414C55.3419 33.2891 55.1896 32.8001 55.1896 30.7689C55.1896 29.4524 55.3038 27.7597 55.418 26.9698L55.6844 25.5781H58.8435C60.5944 25.5781 62.0407 25.6533 62.0407 25.7662ZM46.7018 31.2579C46.5876 32.5368 46.2831 33.7781 45.9787 34.0414C45.2555 34.7561 41.4112 34.9441 41.1829 34.3047C41.1067 34.0038 42.0202 32.9129 43.2001 31.8597C44.4181 30.7689 45.598 29.7157 45.8264 29.4524C46.6638 28.512 46.9302 29.001 46.7018 31.2579ZM242.834 31.9726C242.606 32.9882 242.187 33.9661 241.959 34.1542C241.198 34.7184 237.582 35.0194 237.239 34.5304C237.087 34.2671 238.115 33.0634 239.789 31.5212C242.111 29.4148 242.682 29.0386 242.948 29.5276C243.139 29.9038 243.101 30.8817 242.834 31.9726ZM57.0546 39.1946C56.8643 39.8717 56.4456 41.8652 56.1412 43.6331C55.0374 50.2157 54.5045 52.2469 53.7052 53.2625C52.7537 54.4662 52.7156 54.2405 53.4768 51.7579C53.8574 50.5542 54.0478 48.2973 54.0478 45.2882C54.0478 39.4203 54.5426 38.0285 56.5979 37.9909C57.3591 37.9909 57.3972 38.1038 57.0546 39.1946Z" fill="white"/>
</svg>
