<svg width="807" height="79" viewBox="0 0 807 79" fill="none" xmlns="http://www.w3.org/2000/svg">
<g clip-path="url(#clip0_46_578)">
<path d="M87.8684 0L144.34 79H114.914L103.801 63.2028H40.1142L29.0013 79H0L56.1457 0H87.8684ZM71.9503 17.9746L54.5156 42.695H89.3993L71.9645 17.9746H71.9503Z" fill="white" style="fill:white;fill-opacity:1;"/>
<path d="M278.715 39.564C278.715 64.6545 263.123 79 237.297 79H150.846V0H234.462C265.958 0 278.715 16.893 278.715 39.564ZM232.279 58.4922C245.363 58.4922 252.01 51.7321 252.01 39.3221C252.01 26.9121 245.363 20.5078 232.279 20.5078H177.013V58.5064H232.279V58.4922Z" fill="white" style="fill:white;fill-opacity:1;"/>
<path d="M378.888 79V64.7683C378.888 56.9267 376.591 53.6676 366.783 53.6676H314.138V79H287.972V0H374.734C394.579 0 401.992 7.47163 401.992 21.2337C401.992 29.8011 398.945 35.5792 392.297 38.4824C401.128 41.4995 404.501 47.2918 404.501 57.2967V79H378.888ZM314.138 20.5078V33.416H367.874C372.665 33.416 374.734 30.5269 374.734 26.8979C374.734 23.2688 372.778 20.5078 367.973 20.5078H314.124H314.138Z" fill="white" style="fill:white;fill-opacity:1;"/>
<path d="M439.37 29.5449H524.503V49.4408H439.37V58.4922H532.143V79H413.218V0H531.052V20.5078H439.37V29.5592V29.5449Z" fill="white" style="fill:white;fill-opacity:1;"/>
<path d="M629.594 47.6476V0H655.208V79H628.063L568.657 29.1892V79H543.044V0H572.697L629.594 47.6476Z" fill="white" style="fill:white;fill-opacity:1;"/>
<path d="M749.596 0L806.068 79H776.641L765.528 63.2028H701.87L690.757 79H661.756L717.873 0H749.596ZM733.678 17.9746L716.243 42.695H751.127L733.692 17.9746H733.678Z" fill="white" style="fill:white;fill-opacity:1;"/>
<path d="M768.181 11.1537C767.109 11.1537 766.144 10.9214 765.286 10.4566C764.445 9.97401 763.775 9.31265 763.275 8.47254C762.792 7.63244 762.551 6.66721 762.551 5.57686C762.551 4.48652 762.792 3.52129 763.275 2.68119C763.775 1.84108 764.445 1.18866 765.286 0.72392C766.144 0.241307 767.109 0 768.181 0C769.254 0 770.21 0.241307 771.05 0.72392C771.908 1.18866 772.578 1.84108 773.061 2.68119C773.562 3.52129 773.812 4.48652 773.812 5.57686C773.812 6.66721 773.562 7.63244 773.061 8.47254C772.578 9.31265 771.908 9.97401 771.05 10.4566C770.21 10.9214 769.254 11.1537 768.181 11.1537ZM768.181 10.0544C769.522 10.0544 770.603 9.65226 771.426 8.84791C772.248 8.02568 772.659 6.93533 772.659 5.57686C772.659 4.23627 772.248 3.15486 771.426 2.33263C770.603 1.5104 769.522 1.09929 768.181 1.09929C766.841 1.09929 765.759 1.5104 764.937 2.33263C764.115 3.13699 763.704 4.2184 763.704 5.57686C763.704 6.91746 764.115 7.99887 764.937 8.8211C765.759 9.64333 766.841 10.0544 768.181 10.0544ZM766.251 8.49936V2.54713H768.53C769.191 2.54713 769.692 2.708 770.031 3.02974C770.371 3.35148 770.541 3.72685 770.541 4.15584C770.541 4.51333 770.451 4.81719 770.273 5.06744C770.112 5.31768 769.844 5.5143 769.468 5.6573V5.92542C769.772 5.94329 769.987 6.0416 770.112 6.22035C770.255 6.39909 770.326 6.63146 770.326 6.91746V8.49936H769.227V6.89064C769.227 6.51528 769.039 6.3276 768.664 6.3276H767.35V8.49936H766.251ZM767.35 5.30875H768.53C768.834 5.30875 769.057 5.21937 769.2 5.04063C769.361 4.86188 769.441 4.65632 769.441 4.42395C769.441 4.17371 769.361 3.96815 769.2 3.80728C769.057 3.62854 768.834 3.53916 768.53 3.53916H767.35V5.30875Z" fill="white" style="fill:white;fill-opacity:1;"/>
</g>
<defs>
<clipPath id="clip0_46_578">
<rect width="806.068" height="79" fill="white" style="fill:white;fill-opacity:1;"/>
</clipPath>
</defs>
</svg>
